<?xml version="1.0" encoding="UTF-8" standalone="no"?>
<!-- Created with Inkscape (http://www.inkscape.org/) -->

<svg
   xmlns:dc="http://purl.org/dc/elements/1.1/"
   xmlns:cc="http://creativecommons.org/ns#"
   xmlns:rdf="http://www.w3.org/1999/02/22-rdf-syntax-ns#"
   xmlns:svg="http://www.w3.org/2000/svg"
   xmlns="http://www.w3.org/2000/svg"
   xmlns:sodipodi="http://sodipodi.sourceforge.net/DTD/sodipodi-0.dtd"
   xmlns:inkscape="http://www.inkscape.org/namespaces/inkscape"
   width="64"
   height="64"
   id="svg2"
   version="1.1"
   inkscape:version="0.48.4 r9939"
   inkscape:export-filename="/home/kivutar/Bureau/lakka-menu/settings.png"
   inkscape:export-xdpi="270"
   inkscape:export-ydpi="270"
   sodipodi:docname="Nouveau document 1">
  <defs
     id="defs4" />
  <sodipodi:namedview
     id="base"
     pagecolor="#ffffff"
     bordercolor="#666666"
     borderopacity="1.0"
     inkscape:pageopacity="0.0"
     inkscape:pageshadow="2"
     inkscape:zoom="6.859375"
     inkscape:cx="32.146028"
     inkscape:cy="26.621324"
     inkscape:document-units="px"
     inkscape:current-layer="layer1"
     showgrid="true"
     inkscape:window-width="1440"
     inkscape:window-height="837"
     inkscape:window-x="0"
     inkscape:window-y="27"
     inkscape:window-maximized="1">
    <inkscape:grid
       type="xygrid"
       id="grid2993"
       empspacing="8"
       visible="true"
       enabled="true"
       snapvisiblegridlinesonly="true" />
  </sodipodi:namedview>
  <metadata
     id="metadata7">
    <rdf:RDF>
      <cc:Work
         rdf:about="">
        <dc:format>image/svg+xml</dc:format>
        <dc:type
           rdf:resource="http://purl.org/dc/dcmitype/StillImage" />
        <dc:title></dc:title>
      </cc:Work>
    </rdf:RDF>
  </metadata>
  <g
     inkscape:label="Calque 1"
     inkscape:groupmode="layer"
     id="layer1"
     transform="translate(0,-988.36218)">
    <path
       style="fill:#ecf0f1;fill-opacity:1;stroke:none"
       d="m 48.970551,1003.3916 c -9.372592,-9.3726 -24.568511,-9.3726 -33.941115,0 -9.372564,9.3726 -9.3725822,24.5686 1.4e-5,33.9412 9.372567,9.3725 24.568541,9.3725 33.941143,-10e-5 9.372521,-9.3725 9.372539,-24.5685 -4.2e-5,-33.9411 z m -2.121305,2.1212 c 8.20105,8.2012 8.200998,21.4976 -1.5e-5,29.6986 -8.201008,8.2012 -21.497485,8.201 -29.698456,0 -8.2009993,-8.201 -8.2010329,-21.4974 -1.9e-5,-29.6984 8.201008,-8.20107 21.497478,-8.20106 29.69849,-2e-4 z"
       id="path2997"
       inkscape:connector-curvature="0" />
    <path
       style="fill:#ecf0f1;fill-opacity:1;stroke:none"
       d="M 32 28 C 30.976311 28 29.937299 28.375201 29.15625 29.15625 C 27.594153 30.718347 27.594153 33.281653 29.15625 34.84375 C 30.718347 36.405847 33.281653 36.405847 34.84375 34.84375 C 36.405847 33.281653 36.405847 30.718347 34.84375 29.15625 C 34.062701 28.375201 33.023689 28 32 28 z M 32 30 C 33.104569 30 34 30.895431 34 32 C 34 33.104569 33.104569 34 32 34 C 30.895431 34 30 33.104569 30 32 C 30 30.895431 30.895431 30 32 30 z "
       transform="translate(0,988.36218)"
       id="path3770" />
    <rect
       style="fill:#ecf0f1;fill-opacity:1;stroke:none;stroke-width:0.10000000000000001;stroke-miterlimit:4;stroke-dasharray:none"
       id="rect3776"
       width="4"
       height="3"
       x="742.13245"
       y="672.87756"
       transform="matrix(0.70710678,0.70710678,-0.70710678,0.70710678,0,0)" />
    <rect
       style="fill:#ecf0f1;fill-opacity:1;stroke:none;stroke-width:0.10000000000000001;stroke-miterlimit:4;stroke-dasharray:none"
       id="rect3778"
       width="4"
       height="3"
       x="742.13245"
       y="721.87762"
       transform="matrix(0.70710678,0.70710678,-0.70710678,0.70710678,0,0)" />
    <rect
       style="fill:#ecf0f1;fill-opacity:1;stroke:none;stroke-width:0.10000000000000001;stroke-miterlimit:4;stroke-dasharray:none"
       id="rect3780"
       width="3"
       height="4"
       x="718.13245"
       y="696.87756"
       transform="matrix(0.70710678,0.70710678,-0.70710678,0.70710678,0,0)" />
    <rect
       style="fill:#ecf0f1;fill-opacity:1;stroke:none;stroke-width:0.10000000000000001;stroke-miterlimit:4;stroke-dasharray:none"
       id="rect3782"
       width="4"
       height="4"
       x="766.13245"
       y="696.87756"
       transform="matrix(0.70710678,0.70710678,-0.70710678,0.70710678,0,0)" />
    <rect
       style="fill:#ecf0f1;fill-opacity:1;stroke:none;stroke-width:0.10000000000000001;stroke-miterlimit:4;stroke-dasharray:none"
       id="rect3784"
       width="4"
       height="4"
       x="535.89392"
       y="841.65955"
       transform="matrix(0.8660254,0.5,-0.5,0.8660254,0,0)" />
    <rect
       style="fill:#ecf0f1;fill-opacity:1;stroke:none;stroke-width:0.10000000000000001;stroke-miterlimit:4;stroke-dasharray:none"
       id="rect3786"
       width="4"
       height="4"
       x="511.89395"
       y="865.65955"
       transform="matrix(0.8660254,0.5,-0.5,0.8660254,0,0)" />
    <rect
       style="fill:#ecf0f1;fill-opacity:1;stroke:none;stroke-width:0.10000000000000001;stroke-miterlimit:4;stroke-dasharray:none"
       id="rect3788"
       width="4"
       height="3"
       x="535.89392"
       y="890.65961"
       transform="matrix(0.8660254,0.5,-0.5,0.8660254,0,0)" />
    <rect
       style="fill:#ecf0f1;fill-opacity:1;stroke:none;stroke-width:0.10000000000000001;stroke-miterlimit:4;stroke-dasharray:none"
       id="rect3790"
       width="3"
       height="4"
       x="560.89392"
       y="865.65955"
       transform="matrix(0.8660254,0.5,-0.5,0.8660254,0,0)" />
    <rect
       style="fill:#ecf0f1;fill-opacity:1;stroke:none;stroke-width:0.10000000000000001;stroke-miterlimit:4;stroke-dasharray:none"
       id="rect3792"
       width="4"
       height="3"
       x="292.99881"
       y="951.31195"
       transform="matrix(0.96592583,0.25881905,-0.25881905,0.96592583,0,0)" />
    <rect
       style="fill:#ecf0f1;fill-opacity:1;stroke:none;stroke-width:0.10000000000000001;stroke-miterlimit:4;stroke-dasharray:none"
       id="rect3794"
       width="3"
       height="4"
       x="268.99881"
       y="975.31195"
       transform="matrix(0.96592583,0.25881905,-0.25881905,0.96592583,0,0)" />
    <rect
       style="fill:#ecf0f1;fill-opacity:1;stroke:none;stroke-width:0.10000000000000001;stroke-miterlimit:4;stroke-dasharray:none"
       id="rect3796"
       width="4"
       height="3"
       x="292.99881"
       y="1000.312"
       transform="matrix(0.96592583,0.25881905,-0.25881905,0.96592583,0,0)" />
    <rect
       style="fill:#ecf0f1;fill-opacity:1;stroke:none;stroke-width:0.10000000000000001;stroke-miterlimit:4;stroke-dasharray:none"
       id="rect3798"
       width="3"
       height="4"
       x="317.99881"
       y="975.31195"
       transform="matrix(0.96592583,0.25881905,-0.25881905,0.96592583,0,0)" />
    <rect
       style="fill:#ecf0f1;fill-opacity:1;stroke:none;stroke-width:0.10000000000000001;stroke-miterlimit:4;stroke-dasharray:none"
       id="rect3800"
       width="4"
       height="3"
       x="30.000017"
       y="994.36218" />
    <rect
       style="fill:#ecf0f1;fill-opacity:1;stroke:none;stroke-width:0.10000000000000001;stroke-miterlimit:4;stroke-dasharray:none"
       id="rect3802"
       width="3"
       height="4"
       x="5.9999862"
       y="1018.3622" />
    <rect
       style="fill:#ecf0f1;fill-opacity:1;stroke:none;stroke-width:0.10000000000000001;stroke-miterlimit:4;stroke-dasharray:none"
       id="rect3804"
       width="4"
       height="3"
       x="30.000017"
       y="1043.3622" />
    <rect
       style="fill:#ecf0f1;fill-opacity:1;stroke:none;stroke-width:0.10000000000000001;stroke-miterlimit:4;stroke-dasharray:none"
       id="rect3806"
       width="3"
       height="4"
       x="55.000015"
       y="1018.3622" />
    <rect
       style="fill:#ecf0f1;fill-opacity:1;stroke:none;stroke-width:0.10000000000000001;stroke-miterlimit:4;stroke-dasharray:none"
       id="rect3808"
       width="4"
       height="3"
       x="-235.17955"
       y="967.8764"
       transform="matrix(0.96592583,-0.25881904,0.25881904,0.96592583,0,0)" />
    <rect
       style="fill:#ecf0f1;fill-opacity:1;stroke:none;stroke-width:0.10000000000000001;stroke-miterlimit:4;stroke-dasharray:none"
       id="rect3810"
       width="3"
       height="4"
       x="-210.17955"
       y="991.8764"
       transform="matrix(0.96592583,-0.25881904,0.25881904,0.96592583,0,0)" />
    <rect
       style="fill:#ecf0f1;fill-opacity:1;stroke:none;stroke-width:0.10000000000000001;stroke-miterlimit:4;stroke-dasharray:none"
       id="rect3812"
       width="3"
       height="4"
       x="-259.17953"
       y="991.8764"
       transform="matrix(0.96592583,-0.25881904,0.25881904,0.96592583,0,0)" />
    <rect
       style="fill:#ecf0f1;fill-opacity:1;stroke:none;stroke-width:0.10000000000000001;stroke-miterlimit:4;stroke-dasharray:none"
       id="rect3814"
       width="4"
       height="3"
       x="-235.17955"
       y="1016.8765"
       transform="matrix(0.96592583,-0.25881904,0.25881904,0.96592583,0,0)" />
    <rect
       style="fill:#ecf0f1;fill-opacity:1;stroke:none;stroke-width:0.10000000000000001;stroke-miterlimit:4;stroke-dasharray:none"
       id="rect3816"
       width="4"
       height="3"
       x="-484.46829"
       y="873.65955"
       transform="matrix(0.8660254,-0.5,0.5,0.8660254,0,0)" />
    <rect
       style="fill:#ecf0f1;fill-opacity:1;stroke:none;stroke-width:0.10000000000000001;stroke-miterlimit:4;stroke-dasharray:none"
       id="rect3818"
       width="3"
       height="4"
       x="-459.46829"
       y="897.65955"
       transform="matrix(0.8660254,-0.5,0.5,0.8660254,0,0)" />
    <rect
       style="fill:#ecf0f1;fill-opacity:1;stroke:none;stroke-width:0.10000000000000001;stroke-miterlimit:4;stroke-dasharray:none"
       id="rect3820"
       width="3"
       height="4"
       x="-508.46829"
       y="897.65955"
       transform="matrix(0.8660254,-0.5,0.5,0.8660254,0,0)" />
    <rect
       style="fill:#ecf0f1;fill-opacity:1;stroke:none;stroke-width:0.10000000000000001;stroke-miterlimit:4;stroke-dasharray:none"
       id="rect3822"
       width="4"
       height="3"
       x="-484.46829"
       y="922.65955"
       transform="matrix(0.8660254,-0.5,0.5,0.8660254,0,0)" />
    <rect
       style="fill:#ecf0f1;fill-opacity:1;stroke:none"
       id="rect3838"
       width="3"
       height="19"
       x="742.63245"
       y="676.87762"
       transform="matrix(0.70710678,0.70710678,-0.70710678,0.70710678,0,0)" />
    <rect
       style="fill:#ecf0f1;fill-opacity:1;stroke:none"
       id="rect3840"
       width="3"
       height="19"
       x="742.63245"
       y="701.87762"
       transform="matrix(0.70710678,0.70710678,-0.70710678,0.70710678,0,0)" />
  </g>
</svg>
