<?xml version="1.0" encoding="UTF-8" standalone="no"?>
<!-- Created with Inkscape (http://www.inkscape.org/) -->

<svg
   xmlns:dc="http://purl.org/dc/elements/1.1/"
   xmlns:cc="http://creativecommons.org/ns#"
   xmlns:rdf="http://www.w3.org/1999/02/22-rdf-syntax-ns#"
   xmlns:svg="http://www.w3.org/2000/svg"
   xmlns="http://www.w3.org/2000/svg"
   xmlns:sodipodi="http://sodipodi.sourceforge.net/DTD/sodipodi-0.dtd"
   xmlns:inkscape="http://www.inkscape.org/namespaces/inkscape"
   width="64"
   height="64"
   id="svg2"
   version="1.1"
   inkscape:version="0.48.4 r9939"
   inkscape:export-filename="/home/kivutar/Bureau/lakka-menu/settings.png"
   inkscape:export-xdpi="270"
   inkscape:export-ydpi="270"
   sodipodi:docname="settings.svg">
  <defs
     id="defs4" />
  <sodipodi:namedview
     id="base"
     pagecolor="#ffffff"
     bordercolor="#666666"
     borderopacity="1.0"
     inkscape:pageopacity="0.0"
     inkscape:pageshadow="2"
     inkscape:zoom="13.71875"
     inkscape:cx="42.272182"
     inkscape:cy="34.850859"
     inkscape:document-units="px"
     inkscape:current-layer="layer1"
     showgrid="true"
     inkscape:window-width="1440"
     inkscape:window-height="837"
     inkscape:window-x="0"
     inkscape:window-y="27"
     inkscape:window-maximized="1">
    <inkscape:grid
       type="xygrid"
       id="grid2993"
       empspacing="8"
       visible="true"
       enabled="true"
       snapvisiblegridlinesonly="true" />
  </sodipodi:namedview>
  <metadata
     id="metadata7">
    <rdf:RDF>
      <cc:Work
         rdf:about="">
        <dc:format>image/svg+xml</dc:format>
        <dc:type
           rdf:resource="http://purl.org/dc/dcmitype/StillImage" />
        <dc:title />
      </cc:Work>
    </rdf:RDF>
  </metadata>
  <g
     inkscape:label="Calque 1"
     inkscape:groupmode="layer"
     id="layer1"
     transform="translate(0,-988.36218)">
    <path
       style="fill:#ecf0f1;fill-opacity:1;stroke:none"
       d="M 30 6 L 30 8.0625 C 29.236364 8.1259 28.491662 8.24181 27.75 8.375 L 27.1875 6.375 L 23.34375 7.375 L 23.875 9.40625 C 23.156889 9.66447 22.465762 9.95836 21.78125 10.28125 L 20.71875 8.5 L 17.28125 10.46875 L 18.3125 12.28125 C 17.68046 12.72035 17.085806 13.1912 16.5 13.6875 L 15.03125 12.1875 L 12.1875 15.03125 L 13.6875 16.5 C 13.191179 17.0858 12.720377 17.6804 12.28125 18.3125 L 10.46875 17.28125 L 8.5 20.71875 L 10.28125 21.78125 C 9.9544543 22.47405 9.6667753 23.1479 9.40625 23.875 L 7.375 23.34375 L 6.375 27.1875 L 8.375 27.75 C 8.2418079 28.4917 8.1258666 29.2364 8.0625 30 L 6 30 L 6 34 L 8.0625 34 C 8.125868 34.7637 8.2418065 35.5084 8.375 36.25 L 6.375 36.8125 L 7.375 40.65625 L 9.40625 40.125 C 9.6644719 40.8431 9.9583522 41.53425 10.28125 42.21875 L 8.5 43.28125 L 10.46875 46.71875 L 12.28125 45.6875 C 12.720379 46.3195 13.191177 46.9142 13.6875 47.5 L 12.1875 48.96875 L 15.03125 51.8125 L 16.5 50.3125 C 17.085808 50.8088 17.680458 51.27955 18.3125 51.71875 L 17.28125 53.53125 L 20.71875 55.5 L 21.78125 53.71875 C 22.47403 54.04555 23.147828 54.33325 23.875 54.59375 L 23.34375 56.625 L 27.1875 57.625 L 27.75 55.625 C 28.491663 55.7582 29.236364 55.8742 30 55.9375 L 30 58 L 34 58 L 34 55.9375 C 34.763631 55.8745 35.508342 55.7582 36.25 55.625 L 36.8125 57.625 L 40.65625 56.625 L 40.125 54.59375 C 40.852169 54.33325 41.525973 54.04555 42.21875 53.71875 L 43.28125 55.5 L 46.71875 53.53125 L 45.6875 51.71875 C 46.319539 51.27955 46.914194 50.8088 47.5 50.3125 L 48.96875 51.8125 L 51.8125 48.96875 L 50.3125 47.5 C 50.808822 46.9142 51.279622 46.3195 51.71875 45.6875 L 53.53125 46.71875 L 55.5 43.28125 L 53.71875 42.21875 C 54.045546 41.52605 54.333224 40.8522 54.59375 40.125 L 56.625 40.65625 L 57.625 36.8125 L 55.625 36.25 C 55.759405 35.5016 55.842963 34.7708 55.90625 34 L 58 34 L 58 30 L 55.90625 30 C 55.84296 29.2293 55.759404 28.4984 55.625 27.75 L 57.625 27.1875 L 56.625 23.34375 L 54.59375 23.875 C 54.333224 23.1479 54.045546 22.47405 53.71875 21.78125 L 55.5 20.71875 L 53.53125 17.28125 L 51.71875 18.3125 C 51.279621 17.6804 50.808823 17.0858 50.3125 16.5 L 51.8125 15.03125 L 48.96875 12.1875 L 47.5 13.6875 C 46.914193 13.1912 46.319541 12.72035 45.6875 12.28125 L 46.71875 10.46875 L 43.28125 8.5 L 42.21875 10.28125 C 41.525971 9.95446 40.852172 9.66678 40.125 9.40625 L 40.65625 7.375 L 36.8125 6.375 L 36.25 8.375 C 35.508338 8.24181 34.763636 8.12587 34 8.0625 L 34 6 L 30 6 z M 30.5 11.0625 L 30.5 24.125 C 27.276529 24.732216 24.732216 27.276529 24.125 30.5 L 11.0625 30.5 C 11.426201 25.294665 13.684252 20.628305 17.15625 17.15625 C 20.625194 13.68735 25.300213 11.43039 30.5 11.0625 z M 33.5 11.0625 C 43.901045 11.798317 52.204139 20.098451 52.9375 30.5 L 39.875 30.5 C 39.267784 27.276529 36.723471 24.732216 33.5 24.125 L 33.5 11.0625 z M 32 29 C 33.656854 29 35 30.343146 35 32 C 35 33.656854 33.656854 35 32 35 C 30.343146 35 29 33.656854 29 32 C 29 30.343146 30.343146 29 32 29 z M 11.0625 33.5 L 24.125 33.5 C 24.732216 36.723471 27.276529 39.267784 30.5 39.875 L 30.5 52.9375 C 20.099099 52.20174 11.795873 43.90147 11.0625 33.5 z M 39.875 33.5 L 52.9375 33.5 C 52.204222 43.901549 43.900898 52.20174 33.5 52.9375 L 33.5 39.875 C 36.723471 39.267784 39.267784 36.723471 39.875 33.5 z "
       transform="translate(0,988.36218)"
       id="path2997" />
  </g>
</svg>
