<?xml version="1.0" encoding="UTF-8" standalone="no"?>
<!-- Created with Inkscape (http://www.inkscape.org/) -->

<svg
   xmlns:dc="http://purl.org/dc/elements/1.1/"
   xmlns:cc="http://creativecommons.org/ns#"
   xmlns:rdf="http://www.w3.org/1999/02/22-rdf-syntax-ns#"
   xmlns:svg="http://www.w3.org/2000/svg"
   xmlns="http://www.w3.org/2000/svg"
   xmlns:sodipodi="http://sodipodi.sourceforge.net/DTD/sodipodi-0.dtd"
   xmlns:inkscape="http://www.inkscape.org/namespaces/inkscape"
   width="64"
   height="64"
   id="svg3177"
   version="1.1"
   inkscape:version="0.48.4 r9939"
   sodipodi:docname="setting.svg"
   inkscape:export-filename="/home/kivutar/Bureau/lakka-menu/setting.png"
   inkscape:export-xdpi="270"
   inkscape:export-ydpi="270">
  <defs
     id="defs3179" />
  <sodipodi:namedview
     id="base"
     pagecolor="#ffffff"
     bordercolor="#666666"
     borderopacity="1.0"
     inkscape:pageopacity="0.0"
     inkscape:pageshadow="2"
     inkscape:zoom="14.252621"
     inkscape:cx="38.83666"
     inkscape:cy="27.260363"
     inkscape:document-units="px"
     inkscape:current-layer="layer1"
     showgrid="true"
     inkscape:window-width="1440"
     inkscape:window-height="837"
     inkscape:window-x="0"
     inkscape:window-y="27"
     inkscape:window-maximized="1">
    <inkscape:grid
       type="xygrid"
       id="grid3185"
       empspacing="4"
       visible="true"
       enabled="true"
       snapvisiblegridlinesonly="true" />
  </sodipodi:namedview>
  <metadata
     id="metadata3182">
    <rdf:RDF>
      <cc:Work
         rdf:about="">
        <dc:format>image/svg+xml</dc:format>
        <dc:type
           rdf:resource="http://purl.org/dc/dcmitype/StillImage" />
        <dc:title></dc:title>
      </cc:Work>
    </rdf:RDF>
  </metadata>
  <g
     inkscape:label="Calque 1"
     inkscape:groupmode="layer"
     id="layer1"
     transform="translate(0,-988.36218)">
    <path
       style="fill:#ecf0f1;fill-opacity:1;stroke:none"
       d="M 47.849105,1018.1941 45,1018.3622 l -0.453737,-1.386 -0.290579,-1.3732 2.256304,-1.1918 c 0.08666,-0.032 0.172917,-0.076 0.263521,-0.1029 -0.560111,-1.3735 -1.282707,-2.5953 -2.162413,-3.7235 l -2.357412,1.5541 -1.035808,-0.936 -0.986374,-1.0861 1.54992,-2.3649 c -1.142019,-0.8824 -2.438898,-1.5796 -3.772786,-2.1274 l -1.241236,2.4923 -1.405162,-0.295 L 34,1007.3622 l 0.164594,-2.8101 c -1.412697,-0.1942 -2.869297,-0.2046 -4.336053,0 L 30,1007.3622 l -2.770506,0.7531 -1.272724,-2.5581 c -1.376316,0.5605 -2.614051,1.3174 -3.745563,2.2007 l 1.554186,2.3574 -0.93611,1.0357 -1.086162,0.9949 -2.364746,-1.5585 c -0.877568,1.1405 -1.578521,2.443 -2.12728,3.773 l 2.492026,1.2496 -0.29468,1.3968 -0.448441,1.3554 -2.821287,-0.1557 c -0.196639,1.4054 -0.22997,2.8865 -0.03302,4.344 L 19,1022.3625 l 0.739112,2.7798 -2.226123,1.1837 -0.301843,0.081 c 0.556784,1.3569 1.334047,2.626 2.200646,3.7456 l 2.327321,-1.5461 1.035657,0.9361 0.994632,1.0945 -1.558178,2.3565 c 1.142679,0.8873 2.410576,1.6138 3.750775,2.1655 l 1.271505,-2.522 1.397098,0.2864 1.369398,0.439 -0.169704,2.8306 c 1.422909,0.1995 2.872393,0.2355 4.343991,0.033 L 34,1033.3622 l 1.36208,-0.4311 1.403323,-0.2988 1.264541,2.528 c 0.683717,-0.2784 1.351674,-0.5879 1.977593,-0.9504 0.626031,-0.3626 1.18245,-0.775 1.745862,-1.212 l -1.523895,-2.3656 0.936105,-1.0357 1.094175,-0.9862 2.310376,1.4975 c 0.879827,-1.138 1.619036,-2.3915 2.173589,-3.7206 l -2.483965,-1.241 0.28667,-1.4055 0.453546,-1.3786 2.816089,0.179 c 0.207109,-1.4238 0.235503,-2.8682 0.03306,-4.344 z m -7.046452,-2.5119 c 0.121547,0.3205 0.151714,0.6803 0.107867,1.0064 -0.01916,0.1448 -0.0641,0.2836 -0.114195,0.4188 -0.06685,0.1803 -0.139635,0.334 -0.257128,0.4895 -0.157001,0.2072 -0.374133,0.3498 -0.613403,0.4879 -0.95658,0.5523 -2.188229,0.2674 -2.740483,-0.6892 -0.552139,-0.9566 -0.237768,-2.1965 0.719407,-2.7487 0.956494,-0.5522 2.19626,-0.2371 2.748608,0.7194 0.05837,0.1007 0.109042,0.2089 0.149002,0.3161 z m 0.800422,6.1266 c 0.127411,0.3587 0.156879,0.7512 0.04966,1.1514 -0.07164,0.2667 -0.202318,0.5054 -0.359422,0.711 -0.156595,0.2057 -0.353348,0.382 -0.575084,0.5099 -0.443306,0.256 -0.972088,0.32 -1.505527,0.177 -1.066988,-0.2859 -1.714008,-1.3651 -1.428313,-2.4319 0.285801,-1.067 1.373283,-1.6838 2.440075,-1.3979 0.66683,0.1786 1.165485,0.6844 1.378471,1.2806 z m -5.671201,-9.8028 c 0.11898,0.368 0.134843,0.7895 0.02764,1.1896 -0.107219,0.4001 -0.294813,0.7116 -0.58263,0.965 -0.09617,0.084 -0.210983,0.1839 -0.321773,0.2479 -0.443247,0.2559 -0.971995,0.3199 -1.505527,0.1769 -1.066944,-0.2858 -1.691865,-1.4033 -1.405597,-2.4704 0.285931,-1.067 1.373152,-1.684 2.440118,-1.398 0.666786,0.1787 1.149882,0.6755 1.348234,1.2887 z m 1.974165,14.6119 c 0.116781,0.3123 0.140034,0.6281 0.0917,0.946 -0.02126,0.1413 -0.06425,0.2837 -0.114288,0.4189 -0.06681,0.1802 -0.16165,0.3722 -0.279144,0.5277 -0.15694,0.2072 -0.388171,0.4183 -0.627389,0.5564 -0.956531,0.5522 -2.166126,0.2291 -2.718415,-0.7275 -0.552432,-0.9566 -0.245335,-2.2265 0.711276,-2.7788 0.956544,-0.5523 2.234589,-0.2151 2.786933,0.7414 0.05838,0.1007 0.110615,0.2117 0.149003,0.3161 z m -2.12073,-7.5521 c 0.25141,0.7282 0.291689,1.5407 0.07729,2.3409 -0.160826,0.6001 -0.457046,1.1406 -0.837532,1.5833 -0.126435,0.1475 -0.263239,0.2751 -0.410083,0.401 -0.195868,0.1678 -0.399956,0.3298 -0.621534,0.4577 -0.88661,0.5118 -1.966185,0.6781 -3.033073,0.3921 -2.133832,-0.5717 -3.436016,-2.7602 -2.864798,-4.8938 0.571849,-2.1339 2.798542,-3.4141 4.932504,-2.8423 1.333536,0.3574 2.336846,1.3492 2.756804,2.5613 z m -5.832868,-6.0723 c 0.04647,0.1924 0.04608,0.4133 0.03296,0.6058 -0.0126,0.1924 -0.04178,0.3712 -0.112111,0.5478 -0.0703,0.1765 -0.169774,0.342 -0.287176,0.4974 -0.15694,0.2072 -0.366145,0.3801 -0.605372,0.5181 -0.956512,0.5524 -2.188162,0.2675 -2.740433,-0.6892 -0.552189,-0.9566 -0.206468,-2.2041 0.749551,-2.7567 0.95653,-0.5522 2.166069,-0.229 2.718414,0.7275 0.103492,0.1794 0.195294,0.3583 0.244358,0.5492 z m 1.835098,14.455 c 0.122018,0.3573 0.156829,0.7513 0.04966,1.1514 -0.107369,0.4002 -0.31682,0.7499 -0.604739,1.0033 -0.09607,0.084 -0.218908,0.1537 -0.329857,0.2177 -0.443148,0.2559 -0.963959,0.3501 -1.497402,0.2072 -1.066839,-0.286 -1.705915,-1.335 -1.420138,-2.4018 0.285914,-1.0671 1.395394,-1.7221 2.462192,-1.4362 0.666772,0.1786 1.134877,0.6668 1.340195,1.2585 z m -5.671201,-9.8028 c 0.125895,0.364 0.165036,0.7814 0.05778,1.1816 -0.07152,0.2667 -0.172171,0.4972 -0.329317,0.7029 -0.156595,0.2058 -0.38369,0.3901 -0.605278,0.5181 -0.443248,0.2558 -0.972089,0.3199 -1.505527,0.1769 -1.066841,-0.2859 -1.683785,-1.3731 -1.397422,-2.4403 0.28593,-1.067 1.334876,-1.706 2.401896,-1.4201 0.666723,0.1787 1.168846,0.6738 1.378377,1.2806 z m 0.836519,6.0199 c 0.119422,0.3349 0.135472,0.7061 0.0858,1.0446 -0.02176,0.1504 -0.06112,0.2796 -0.114194,0.4189 -0.07074,0.1856 -0.163438,0.3403 -0.28732,0.4976 -0.07013,0.09 -0.136115,0.1767 -0.223109,0.2538 -0.0992,0.088 -0.240525,0.1569 -0.36,0.2259 -0.956736,0.5523 -2.166126,0.2291 -2.718465,-0.7274 -0.552252,-0.9566 -0.229155,-2.1662 0.727489,-2.7185 0.956494,-0.5522 2.188162,-0.2674 2.740433,0.6893 0.05974,0.1026 0.107201,0.2055 0.149003,0.316 z"
       id="path3187"
       inkscape:connector-curvature="0"
       sodipodi:nodetypes="cccccccccccccccccccccccccccccccccccccccccccccccccccccccccccccccccsccccccccccccccccccccccscccccccccccccccccccccccccccccccccccccsccccccccccccccccccscccc" />
  </g>
</svg>
