<?xml version="1.0" encoding="UTF-8" standalone="no"?>
<!-- Created with Inkscape (http://www.inkscape.org/) -->

<svg
   xmlns:dc="http://purl.org/dc/elements/1.1/"
   xmlns:cc="http://creativecommons.org/ns#"
   xmlns:rdf="http://www.w3.org/1999/02/22-rdf-syntax-ns#"
   xmlns:svg="http://www.w3.org/2000/svg"
   xmlns="http://www.w3.org/2000/svg"
   xmlns:sodipodi="http://sodipodi.sourceforge.net/DTD/sodipodi-0.dtd"
   xmlns:inkscape="http://www.inkscape.org/namespaces/inkscape"
   width="64"
   height="64"
   id="svg2"
   version="1.1"
   inkscape:version="0.48.4 r9939"
   inkscape:export-filename="/home/kivutar/Bureau/lakka-menu/settings.png"
   inkscape:export-xdpi="270"
   inkscape:export-ydpi="270"
   sodipodi:docname="settings.svg">
  <defs
     id="defs4" />
  <sodipodi:namedview
     id="base"
     pagecolor="#ffffff"
     bordercolor="#666666"
     borderopacity="1.0"
     inkscape:pageopacity="0.0"
     inkscape:pageshadow="2"
     inkscape:zoom="13.71875"
     inkscape:cx="42.417968"
     inkscape:cy="40.682294"
     inkscape:document-units="px"
     inkscape:current-layer="layer1"
     showgrid="true"
     inkscape:window-width="1440"
     inkscape:window-height="837"
     inkscape:window-x="0"
     inkscape:window-y="27"
     inkscape:window-maximized="1">
    <inkscape:grid
       type="xygrid"
       id="grid2993"
       empspacing="8"
       visible="true"
       enabled="true"
       snapvisiblegridlinesonly="true" />
  </sodipodi:namedview>
  <metadata
     id="metadata7">
    <rdf:RDF>
      <cc:Work
         rdf:about="">
        <dc:format>image/svg+xml</dc:format>
        <dc:type
           rdf:resource="http://purl.org/dc/dcmitype/StillImage" />
        <dc:title />
      </cc:Work>
    </rdf:RDF>
  </metadata>
  <g
     inkscape:label="Calque 1"
     inkscape:groupmode="layer"
     id="layer1"
     transform="translate(0,-988.36218)">
    <path
       style="fill:#ecf0f1;fill-opacity:1;stroke:none"
       d="m 48.970505,1000.5632 -1.458408,1.4584 c -0.584801,-0.4952 -1.193345,-0.9398 -1.81196,-1.37 l 1.016466,-1.81199 -3.425048,-2.01083 -1.060661,1.81196 c -0.690371,-0.32519 -1.386882,-0.60609 -2.099224,-0.86179 l 0.508231,-2.01083 -3.822786,-1.0386 -0.552425,2.01083 c -0.757396,-0.13648 -1.510834,-0.22398 -2.276,-0.28726 l 0.0221,-2.09922 -4.021668,-10e-6 0.0221,2.09923 c -0.765174,0.0633 -1.518527,0.1508 -2.275998,0.28726 l -0.552427,-2.01084 -3.822797,1.03857 0.508235,2.01082 c -0.720968,0.25882 -1.400863,0.53186 -2.099213,0.86175 l -1.060661,-1.81196 -3.425052,2.01085 1.01645,1.81206 c -0.618633,0.4302 -1.227209,0.8748 -1.811959,1.37 l -1.458394,-1.4585 -2.828428,2.8284 1.458395,1.4585 c -0.495192,0.5848 -0.939794,1.1933 -1.370017,1.812 l -1.811951,-1.0166 -2.010839,3.4251 1.811948,1.0607 c -0.325182,0.6904 -0.6060957,1.3869 -0.8617759,2.0992 l -2.0106985,-0.5087 -1.0385798,3.8228 2.0108767,0.5523 c -0.1363822,0.7574 -0.223988,1.5108 -0.2872632,2.276 l -2.0992298,-0.022 9e-6,4.0217 2.0992069,-0.022 c 0.063295,0.7652 0.1509072,1.5185 0.2872614,2.276 l -2.0108227,0.5524 1.038547,3.8229 2.0108459,-0.5083 c 0.2587887,0.7209 0.5317892,1.4009 0.861799,2.0992 l -1.8119641,1.0606 2.0108351,3.4251 1.81196,-1.0165 c 0.430245,0.6187 0.874806,1.2273 1.370002,1.812 l -1.458387,1.4584 2.828427,2.8284 1.458388,-1.4583 c 0.584531,0.4953 1.193341,0.9398 1.811978,1.3699 l -1.016466,1.812 3.425035,2.0109 1.060676,-1.812 c 0.698384,0.33 1.378257,0.603 2.099225,0.8617 l -0.508241,2.0109 3.822734,1.0388 0.552427,-2.0108 c 0.757393,0.1366 1.510837,0.2239 2.276,0.2872 l -0.02209,2.0992 4.021673,0 -0.02209,-2.0992 c 0.765162,-0.063 1.518603,-0.1509 2.275988,-0.2872 l 0.552437,2.0108 3.8228,-1.0386 -0.508253,-2.0108 c 0.720893,-0.2587 1.400813,-0.5318 2.099238,-0.8618 l 1.060661,1.8119 3.425052,-2.0108 -1.016476,-1.8119 c 0.624229,-0.4342 1.200091,-0.8919 1.789856,-1.3921 l 1.480524,1.4804 2.828426,-2.8284 -1.480523,-1.4804 c 0.500216,-0.5898 0.957969,-1.1657 1.392121,-1.7899 l 1.811977,1.0164 2.010839,-3.4251 -1.811975,-1.0606 c 0.329931,-0.6984 0.602993,-1.3783 0.861776,-2.0992 l 2.010958,0.5078 1.038551,-3.8228 -2.010877,-0.5522 c 0.136428,-0.7574 0.223989,-1.5108 0.287263,-2.276 l 2.099204,0.022 1.8e-5,-4.0217 -2.099233,0.022 c -0.06329,-0.7651 -0.150834,-1.5186 -0.287262,-2.276 l 2.010848,-0.5525 -1.038572,-3.8227 -2.010846,0.5083 c -0.258792,-0.721 -0.531804,-1.4009 -0.861773,-2.0993 l 1.811964,-1.0607 -2.010835,-3.425 -1.811961,1.0164 c -0.430274,-0.6185 -0.874865,-1.2271 -1.370027,-1.8119 l 1.458408,-1.4584 -2.828427,-2.8284 z m -3.226181,3.9333 -9.236567,9.2365 c -2.708724,-1.8499 -6.306904,-1.85 -9.015609,0 l -9.236595,-9.2365 c 3.937903,-3.4236 8.83421,-5.12655 13.7444,-5.1266 4.905786,7e-5 9.807436,1.7099 13.744371,5.1266 z m 2.12132,2.1213 c 6.834364,7.8749 6.83645,19.6152 5e-6,27.4888 l -9.236569,-9.2367 c 1.849967,-2.7087 1.849969,-6.3069 -3e-6,-9.0156 l 9.236567,-9.2365 z m -13.74438,11.623 c 1.17158,1.1716 1.171572,3.0711 -6e-6,4.2427 -1.171579,1.1716 -3.071067,1.1716 -4.242647,0 -1.171554,-1.1716 -1.171572,-3.071 7e-6,-4.2426 1.171578,-1.1716 3.071066,-1.1716 4.242646,-10e-5 z m -17.987038,-11.623 9.236596,9.2365 c -1.849968,2.7087 -1.849969,6.3069 3e-6,9.0156 l -9.236594,9.2367 c -6.8342707,-7.8749 -6.8363754,-19.6153 -5e-6,-27.4888 z m 20.373527,20.3735 9.23657,9.2366 c -7.873495,6.8364 -19.613949,6.8342 -27.488772,0 l 9.236594,-9.2366 c 2.708697,1.85 6.306904,1.85 9.015608,0 z"
       id="path2997"
       inkscape:connector-curvature="0" />
  </g>
</svg>
